<?xml version="1.0" encoding="utf-8"?>
<!-- Generator: Adobe Illustrator 23.0.6, SVG Export Plug-In . SVG Version: 6.00 Build 0)  -->
<svg version="1.1" id="Layer_1" xmlns="http://www.w3.org/2000/svg" xmlns:xlink="http://www.w3.org/1999/xlink" x="0px" y="0px"
	 viewBox="0 0 404.61 401.73" style="enable-background:new 0 0 404.61 401.73;" xml:space="preserve">
<style type="text/css">
	.st0{fill:#0DA5A1;}
	.st1{fill:#84D2DD;}
</style>
<g>
	<path class="st0" d="M149.87,345.92c2.4,0,4.8,0.08,7.2-0.03c1.85-0.08,2.53,0.36,2.32,2.47c-1.33,13.29-10.41,20.77-24.55,20.06
		c-10.09-0.51-18.86-6.98-21.79-16.08c-2.99-9.29,0.04-19.9,7.44-26.06c9.45-7.86,26.16-6.84,35.06,2.07
		c0.96,0.96,1.18,1.59,0.08,2.47c-1.1,0.88-1.79,2.71-3.74,0.94c-3.88-3.51-8.44-5.54-13.74-6.08
		c-10.25-1.04-19.57,5.97-21.13,16.11c-1.59,10.32,5.24,19.9,15.55,21.83c9.56,1.79,17.81-2.06,20.83-9.7
		c1.32-3.33,1.14-3.59-2.52-3.6c-2.92-0.01-5.85-0.11-8.76,0.03c-1.94,0.09-1.89-1.02-1.9-2.36c-0.01-1.3,0.15-2.18,1.84-2.1
		C144.65,346.01,147.26,345.92,149.87,345.92z"/>
</g>
<g>
	<path class="st0" d="M215.54,333.71c0,10.6-0.05,20.8,0.04,31c0.02,1.99-0.47,2.77-2.59,2.66c-1.59-0.08-2.2-0.47-2.19-2.13
		c0.05-13.88,0.03-27.77,0.03-41.65c0-0.51-0.04-1.06,0.93-1.64c9.95,10.86,18.73,22.88,29.06,33.75c0.91-1.05,0.54-2.24,0.54-3.29
		c0.03-9.19,0.05-18.37,0-27.56c-0.01-1.78,0.13-2.89,2.44-2.87c2.19,0.02,2.26,1.07,2.25,2.72c-0.04,13.36-0.01,26.72-0.04,40.08
		c0,0.77,0.45,1.88-0.46,2.27c-1.14,0.49-1.56-0.76-2.13-1.41c-8.11-9.26-16.18-18.57-24.34-27.79
		C217.99,336.63,217.71,334.78,215.54,333.71z"/>
</g>
<g>
	<path class="st0" d="M262.03,346.81c0-5.94-0.06-11.89,0.03-17.83c0.03-1.88-0.54-2.66-2.48-2.5c-1.66,0.14-3.34-0.07-5,0.05
		c-1.83,0.13-2.61-0.41-2.61-2.41c0-2.07,1.13-2.07,2.6-2.06c6.57,0.03,13.14,0.04,19.71-0.01c1.54-0.01,2.5,0.14,2.53,2.13
		c0.03,2.11-0.91,2.34-2.64,2.36c-2.36,0.03-5.4-1.08-6.9,0.52c-1.47,1.57-0.45,4.58-0.46,6.95c-0.05,10.22-0.04,20.44,0,30.66
		c0.01,1.62-0.04,2.7-2.24,2.73c-2.22,0.03-2.59-0.86-2.56-2.76C262.09,358.7,262.04,352.75,262.03,346.81z"/>
</g>
<g>
	<path class="st0" d="M167.51,344.68c0-6.57,0.01-13.15-0.01-19.72c-0.01-1.65-0.15-3.02,2.33-2.97c2.27,0.05,2.42,1.09,2.41,2.88
		c-0.05,11.69,0.05,23.38-0.09,35.07c-0.03,2.55,0.77,3.18,3.17,3.07c3.85-0.19,7.72,0.01,11.58-0.08c1.63-0.04,2.48,0.25,2.48,2.15
		c-0.01,1.77-0.56,2.31-2.33,2.28c-5.63-0.11-11.27-0.13-16.9,0.01c-2.08,0.05-2.69-0.62-2.66-2.64
		C167.58,358.04,167.52,351.36,167.51,344.68z"/>
</g>
<g>
	<path class="st0" d="M200.38,344.75c0,6.67-0.04,13.34,0.03,20.02c0.02,1.74-0.25,2.64-2.35,2.62c-2.01-0.02-2.42-0.77-2.41-2.57
		c0.06-13.45,0.05-26.9,0-40.34c-0.01-1.64,0.3-2.52,2.2-2.44c1.67,0.07,2.62,0.27,2.58,2.39
		C200.28,331.2,200.38,337.97,200.38,344.75z"/>
</g>
<g>
	<g>
		<path class="st0" d="M338.94,167.63c-3.04,1.2-5.8,1-8.44,1.39c-1.8,0.27-3.36,0.73-4.88,1.79
			c-22.93,15.96-45.88,31.9-68.89,47.74c-2.18,1.5-2.42,2.51-0.67,4.44c1.62,1.79,3.29,3.63,3.87,6.27
			c-1.83-1.43-3.82-2.69-5.45-4.33c-2.15-2.16-3.26-1.55-4.84,0.76c-12.82,18.64-25.76,37.2-38.66,55.79
			c-2.2,3.17-4.22,6.47-6.6,9.49c-2.82,3.56-4.55,7.38-4.49,11.98c0.01,1.02-0.31,2.04-0.56,3.54c-1.43-2.55-1.01-4.98-1.36-7.22
			c-0.32-2.02-0.93-3.74-2.1-5.42c-15.84-22.76-31.68-45.52-47.4-68.36c-1.59-2.31-2.56-2.55-4.63-0.63
			c-1.69,1.56-3.39,3.34-6.6,4.32c2.11-2.71,3.58-4.87,5.34-6.74c1.53-1.63,1.1-2.37-0.57-3.51c-18.8-12.95-37.55-25.98-56.31-38.99
			c-2.23-1.54-4.57-2.93-6.68-4.62c-5.15-4.11-10.59-7.34-17.51-6.96c-0.37,0.02-0.76-0.25-1.82-0.61c1.65-0.3,2.66-0.68,3.65-0.64
			c5.57,0.25,9.83-2.5,14.18-5.56c21.25-14.9,42.6-29.67,63.99-44.37c2.2-1.52,2.47-2.55,0.65-4.47c-1.7-1.79-3.12-3.84-4.48-6.02
			c2.72,0.77,4.66,2.79,6.69,4.53c1.72,1.47,2.56,1.27,3.77-0.57c15.64-23.76,32.1-46.97,48.28-70.37c1.69-2.44,1.35-5.16,1.83-7.78
			c0.3-1.61,0.12-3.32,1.22-4.93c-0.87,8.56,3.57,14.88,8.17,21.35c11.72,16.48,23.23,33.12,34.62,49.82
			c2.69,3.95,5.29,7.98,7.91,11.98c1.03,1.56,1.83,2.21,3.51,0.61c1.85-1.76,4.03-3.19,6.27-4.57c-0.66,2.73-2.7,4.51-4.33,6.51
			c-1.22,1.5-1.17,2.3,0.46,3.42c23.42,16.16,46.8,32.38,70.18,48.6c1.44,1,3.05,1.28,4.71,1.47
			C333.44,167.04,335.92,167.3,338.94,167.63z M196.26,92.8c-0.57,0.62-0.58,1.37-0.47,2.14c-0.2,2.39-0.41,4.77-0.61,7.16
			c-0.21,1.6-0.42,3.19-0.63,4.79c-0.23,2.6-0.46,5.2-0.69,7.8c-0.19,1.5-0.38,3-0.57,4.5c-1.44,8.8-1.1,17.87-3.88,26.47
			c-0.25,0.79-0.02,1.33,0.52,1.95c5.42,6.13,13.88,5.9,19.01-0.52c0.44-0.55,0.58-1,0.35-1.67c-2.65-7.67-2.53-15.76-3.61-23.67
			c0.11-0.93,0.15-1.86-0.54-2.62c0,0,0.01,0,0.01,0c-0.14-2.1,0.19-4.24-0.55-6.28c-0.26-2.06-0.53-4.12-0.79-6.18
			c-0.2-1.55-0.4-3.1-0.6-4.65c-0.23-2.76-0.46-5.52-0.69-8.28c-0.35-2.82-0.7-5.65-1.05-8.47c-0.71-5.97-1.41-11.94-2.12-17.91
			c-0.13,0-0.26,0-0.4,0c-0.7,6.18-1.41,12.36-2.11,18.54c-0.81,2.24-0.39,4.58-0.59,6.87L196.26,92.8z M201.99,242.57
			c0.58-0.29,0.64-0.79,0.56-1.35c0.24-2.47,0.49-4.93,0.73-7.4c0.2-1.69,0.41-3.38,0.61-5.07c0.25-2.04,0.5-4.08,0.74-6.13
			c0.72-2.04,0.4-4.17,0.59-6.25l0.02-0.08c0.54-0.61,0.56-1.33,0.43-2.08c1.09-7.91,0.97-16.01,3.55-23.7
			c0.3-0.88-0.05-1.31-0.6-1.87c-6.13-6.28-12.46-6.33-18.81-0.15c-0.62,0.6-1.11,1.08-0.77,2.12c2.56,7.9,2.49,16.2,3.59,24.32
			c0.36,2.96,0.73,5.93,1.09,8.89c0.06,0.74,0.13,1.47,0.19,2.21c-0.1,0.97-0.13,1.93,0.49,2.77c0,0,0,0.01,0,0.01
			c0.15,1.89-0.08,3.82,0.56,5.66c0.27,2.46,0.54,4.92,0.81,7.38c0.22,1.74,0.44,3.48,0.67,5.22c0.8,6.87,1.61,13.74,2.41,20.62
			c0.18,0,0.36-0.01,0.53-0.01c0.69-5.86,1.38-11.72,2.08-17.57C202.32,247.65,201.96,245.09,201.99,242.57L201.99,242.57z
			 M273.44,164.74c-0.58-0.52-1.27-0.56-2-0.43c-2.06-0.22-4.12-0.44-6.18-0.66c-1.68-0.19-3.37-0.37-5.05-0.56
			c-2.27-0.27-4.55-0.54-6.82-0.81c-1.87-0.59-3.81-0.44-5.73-0.52c-2.02,0.39-3.86-0.54-5.79-0.82
			c-6.67-0.96-13.52-0.79-19.97-3.12c-1.03-0.37-1.5,0.09-2.11,0.71c-6.21,6.34-6.23,11.94-0.1,18.53c0.71,0.76,1.25,1.16,2.37,0.81
			c8.11-2.53,16.61-2.5,24.93-3.63c2.93-0.67,6-0.17,8.91-1.09c0.74-0.06,1.48-0.13,2.22-0.19c0.77,0.11,1.52,0.1,2.14-0.48
			c0,0,0.02,0,0.02,0c2.1-0.16,4.25,0.19,6.29-0.56c2.26-0.26,4.52-0.52,6.79-0.78c1.69-0.22,3.38-0.43,5.07-0.65
			c6.77-0.77,13.54-1.54,20.32-2.32c-0.01-0.2-0.02-0.41-0.02-0.61c-6.13-0.72-12.26-1.43-18.39-2.15c-2.21-0.78-4.54-0.37-6.8-0.64
			L273.44,164.74z M138.05,163.54c0,0-0.04,0.01-0.04,0.01c-2.3,0.15-4.65-0.21-6.91,0.57c-2.21,0.27-4.41,0.55-6.62,0.82
			c-1.56-0.01-3.11,0.06-4.61,0.57c-6.54,0.67-13.08,1.33-19.62,2c-0.01,0.25-0.02,0.5-0.03,0.75c6.55,0.74,13.1,1.47,19.65,2.21
			c1.54,0.2,3.08,0.4,4.61,0.6c2.41,0.29,4.82,0.57,7.24,0.86c2.05,0.73,4.19,0.4,6.28,0.57l0.04,0.01
			c0.61,0.56,1.35,0.58,2.11,0.47c0.75,0.06,1.49,0.12,2.24,0.19c2.9,0.88,5.95,0.51,8.88,1.09c8.33,1.11,16.82,1.14,24.95,3.63
			c0.64,0.2,1.15,0.23,1.74-0.18c6.39-4.38,6.58-14.65,0.36-19.25c-0.61-0.45-1.06-0.37-1.7-0.17c-8.24,2.49-16.84,2.44-25.28,3.55
			c-2.99,0.36-5.99,0.71-8.98,1.07c-0.77,0.06-1.53,0.12-2.3,0.18C139.33,162.93,138.62,162.95,138.05,163.54z M231.64,201.06
			c0.51,0.35,0.91,1.52,1.5,0.94c0.6-0.61-0.38-1.16-0.92-1.58c-3.82-4.92-7.67-9.82-11.44-14.78c-1.56-2.06-2.48-0.38-3.39,0.54
			c-0.9,0.91-2.59,1.79-0.5,3.37C221.86,193.32,226.73,197.22,231.64,201.06z M192.06,249.4c0,0-0.01-0.05-0.01-0.05
			c-0.07-1.71,0.01-3.44-0.69-5.06c-0.25-2.81-0.49-5.62-0.74-8.43c-0.21-1.8-0.42-3.59-0.62-5.39c-0.21-1.94-0.42-3.88-0.63-5.82
			c0.07-0.59,0.01-1.14-0.55-1.5l0,0c0-2.33,0.27-4.69-0.5-6.96c-1.17-7.77-1.35-15.7-3.16-23.4c-0.51,0.11-0.76,0.09-0.91,0.2
			c-10.95,8.63-21.87,17.29-32.84,25.89c-1.5,1.17-0.75,2.03,0,3.11c4.16,5.97,8.28,11.97,12.42,17.96
			c1.05,1.36,2.09,2.71,3.14,4.07c1.18,1.65,2.37,3.3,3.56,4.95c0.47,1.49,1.39,2.69,2.5,3.76c1.21,1.72,2.13,3.65,3.74,5.08
			c0.44,1.7,1.54,3,2.66,4.27c5.47,7.85,10.95,15.7,16.42,23.55c0.14-0.09,0.29-0.18,0.43-0.27c-1.26-11.25-2.53-22.5-3.79-33.76
			C192.6,250.81,192.59,250.06,192.06,249.4z M206.24,249.41c-0.56,0.54-0.58,1.22-0.46,1.93c-1.27,11.3-2.53,22.6-3.8,33.89
			c0.19,0.09,0.39,0.18,0.58,0.27c5.49-8.01,10.98-16.02,16.47-24.03c1.32-1.06,2.13-2.49,2.95-3.92c1.09-1.61,2.18-3.22,3.27-4.83
			c1.12-1.09,2.02-2.34,2.57-3.82c1.05-1.44,2.09-2.88,3.14-4.32c1.05-1.47,2.11-2.93,3.16-4.4c4.17-5.99,8.27-12.03,12.56-17.93
			c1.31-1.8,1.05-2.65-0.64-3.96c-10.2-7.95-20.35-15.96-30.41-24.09c-2.14-1.73-2.88-1.46-3.19,1.15
			c-0.8,6.73-1.64,13.45-2.47,20.17c-0.35,2.81-0.7,5.61-1.05,8.42c-0.22,2.23-0.44,4.46-0.66,6.69c-0.2,1.69-0.39,3.38-0.59,5.08
			c-0.27,2.26-0.55,4.51-0.82,6.77c-0.7,2.23-0.44,4.55-0.6,6.83L206.24,249.41z M131.26,176.57c-0.27-0.12-0.54-0.24-0.81-0.36
			c-2.58-0.22-5.16-0.44-7.74-0.66c-1.61-0.53-3.27-0.66-4.94-0.64c-11.8-1.39-23.57-3.08-35.42-3.93
			c-0.08,0.25-0.15,0.51-0.23,0.76c7.56,5.25,15.11,10.5,22.67,15.75c1.29,1.1,2.59,2.2,4.3,2.61c1.35,1.69,3.31,2.56,5.02,3.78
			c1.07,1.14,2.32,2.03,3.83,2.49c1.46,1.5,3.23,2.57,5.03,3.6c1.3,1.01,2.6,2.03,3.91,3.04c5.92,4.07,11.92,8.04,17.72,12.28
			c1.98,1.45,2.91,1.04,4.23-0.7c3.72-4.89,7.61-9.66,11.43-14.48c4.7-5.95,9.39-11.9,14.39-18.25c-8.61-1.92-16.94-2.22-25.14-3.38
			c-1.88-0.61-3.83-0.44-5.75-0.48l0,0.01c-0.6-0.65-1.37-0.61-2.15-0.53c-0.93-0.08-1.85-0.16-2.78-0.24
			c-2.45-0.81-4.97-0.52-7.48-0.54L131.26,176.57z M131.23,159.32l0.05-0.02c2.51-0.11,5.07,0.26,7.53-0.56
			c0.76-0.06,1.52-0.12,2.28-0.18c0.95,0.11,1.89,0.18,2.67-0.55l0,0.01c2.12-0.09,4.27,0.18,6.34-0.52
			c7.35-0.86,14.7-1.7,22.05-2.58c1.98-0.24,2.86-0.82,1.21-2.87c-8.37-10.39-16.67-20.84-24.89-31.35
			c-1.18-1.51-1.92-1.68-3.46-0.57c-6.01,4.32-12.11,8.5-18.18,12.74c-1.5,1.05-2.99,2.11-4.49,3.16c-1.2,0.84-2.4,1.68-3.6,2.52
			c-1.74,1.21-3.47,2.42-5.21,3.62c-1.44,1.03-2.89,2.05-4.33,3.08c-1.41,0.68-2.74,1.46-3.77,2.67c-7.9,5.45-15.8,10.9-23.69,16.36
			c0.11,0.25,0.22,0.5,0.33,0.75c11.96-1.33,23.91-2.65,35.87-3.98c1.72-0.19,3.44-0.39,5.16-0.58c2.24-0.22,4.49-0.43,6.73-0.65
			C130.36,159.9,130.89,159.88,131.23,159.32z M190.78,99.15c0.64-1.01,0.62-2.11,0.5-3.24c0.07-0.77,0.13-1.55,0.2-2.32
			c0.34-2.84,0.68-5.69,1.02-8.53c1.27-11.81,2.53-23.62,3.8-35.43c-0.19-0.06-0.38-0.13-0.57-0.19
			c-5.48,7.96-10.96,15.91-16.45,23.87c-1.12,1.09-1.99,2.35-2.55,3.82c-1.22,1.67-2.44,3.33-3.66,5c-1.03,1.5-2.06,2.99-3.09,4.49
			c-0.87,1.2-1.73,2.4-2.6,3.61c-1.08,1.32-2.21,2.62-2.6,4.36c-1.15,0.32-1.47,1.42-2.03,2.25c-3.66,5.41-7.18,10.93-10.98,16.24
			c-1.46,2.04-1.36,3.09,0.64,4.65c10.09,7.88,20.05,15.91,30.05,23.9c2.98,2.38,3.34,2.35,3.79-1.28
			c0.95-7.63,1.69-15.29,2.52-22.94c0.2-1.6,0.41-3.2,0.61-4.79c0.23-2.58,0.46-5.16,0.69-7.74c0.76-1.83,0.52-3.78,0.68-5.68
			L190.78,99.15z M207.65,99.06c0.21,1.91,0.42,3.82,0.64,5.73c0.22,2.41,0.44,4.82,0.67,7.22c0.7,2.78,0.11,5.73,1.05,8.48
			c0.85,6.82,1.69,13.65,2.57,20.47c0.25,1.96,0.98,2.59,2.76,1.06c2.6-2.25,5.35-4.33,8.03-6.48c7.58-6.05,15.12-12.15,22.76-18.11
			c1.72-1.34,1.83-2.36,0.52-4.02c-1.8-2.29-3.28-4.83-5.07-7.13c-2.93-3.77-4.55-8.43-8.11-11.76c-0.47-1.69-1.57-2.98-2.66-4.29
			c-0.84-1.2-1.68-2.4-2.52-3.6c-0.81-1.47-1.64-2.91-3.02-3.94c-1.06-1.62-2.11-3.25-3.17-4.87c-0.71-1.56-1.58-3-3.07-3.96
			c-5.1-8.33-11-16.09-17.05-23.81c1.28,11.47,2.57,22.94,3.85,34.41c0.35,2.82,0.7,5.65,1.04,8.47
			C207.13,94.96,207.39,97.01,207.65,99.06z M275.6,175.56c-2.87,0.31-5.74,0.62-8.61,0.93c-2.48,0.42-5.06-0.11-7.5,0.76
			c-0.92,0.08-1.85,0.16-2.77,0.24c-0.78-0.09-1.54-0.12-2.14,0.53l0-0.01c-2.12,0.08-4.26-0.19-6.32,0.52
			c-8.04,1.21-16.24,1.37-24.27,3.31c0.22,0.58,0.25,0.8,0.37,0.95c8.58,10.87,17.21,21.71,25.73,32.63
			c1.31,1.67,2.19,0.8,3.32,0.02c5.99-4.15,11.99-8.28,17.99-12.42c1.35-1.04,2.71-2.07,4.06-3.11c1.63-1.18,3.27-2.36,4.9-3.54
			c1.49-0.51,2.74-1.39,3.82-2.53c1.7-1.23,3.64-2.16,5.07-3.75c1.7-0.45,3.01-1.55,4.28-2.68c7.45-5.21,14.91-10.41,22.36-15.62
			c-0.15-0.34-0.29-0.68-0.44-1.01c-11.64,1.38-23.27,2.75-34.91,4.13C278.88,174.9,277.21,175,275.6,175.56z M289.11,145.3
			c-1.8-1.31-3.48-2.8-5.55-3.71c-1.04-1.37-2.47-2.23-3.93-3.04c-1.2-0.84-2.41-1.68-3.61-2.52c-1.3-1.08-2.61-2.16-4.28-2.65
			c-6.08-5.08-12.9-9.12-19.28-13.78c-1.57-1.15-1.99,0.29-2.62,1.1c-8.1,10.2-16.1,20.47-24.31,30.58
			c-2.02,2.49-1.13,2.99,1.33,3.29c7.55,0.9,15.09,1.81,22.63,2.72c1.72,0.2,3.43,0.41,5.15,0.61c2.48,0.25,4.96,0.49,7.44,0.74
			c1.66,0.58,3.38,0.59,5.11,0.63c1.84,0.25,3.67,0.49,5.51,0.74c2.84,0.35,5.67,0.7,8.51,1.05c11.7,1.31,23.4,2.61,35.11,3.92
			c0.09-0.26,0.18-0.52,0.26-0.77c-8.16-5.31-15.78-11.39-24.18-16.35C291.67,146.51,290.41,145.88,289.11,145.3z M216.75,155
			c-1.41-1.35-2.73-2.81-4.25-4c-1.18-0.92-1.84,0.5-2.56,1.07c-7.13,5.7-13.68,6.39-19.83,1.28c-2.9-2.41-4.44-2.05-6.64,0.56
			c-1.13,1.35-1.53,1.92-0.28,3.48c6.04,7.57,6.16,13.3,0.02,20.77c-2.6,3.17,0.34,3.91,1.52,5.62c1.52,2.21,2.71,0.88,4.03-0.17
			c7.18-5.74,13.7-5.99,20.55,0.01c3.32,2.91,3.98-0.29,5.76-1.43c2.38-1.52,0.8-2.69-0.17-3.96c-5.94-7.8-5.87-13.28,0.28-21.12
			C215.64,156.55,216.05,155.95,216.75,155z M164.69,201.69c1.34,0.27,1.95-0.56,2.65-1.12c4.49-3.54,8.98-7.09,13.42-10.69
			c0.63-0.51,2.08-0.74,1.47-1.95c-0.7-1.39-1.84-2.62-3.29-3.22c-1.16-0.48-1.44,0.94-1.95,1.57
			C172.87,191.36,168.82,196.5,164.69,201.69z M165.76,134.08c-0.17,0.19-0.34,0.39-0.51,0.58c4.13,5.23,8.3,10.41,12.35,15.7
			c1.18,1.54,1.93,1.23,3.14,0.08c1.65-1.56,2.83-2.89,0.03-4.42c-0.63-0.34-1.13-0.91-1.7-1.37
			C174.63,141.13,170.2,137.6,165.76,134.08z M232.82,134.84c-0.19-0.21-0.37-0.41-0.56-0.62c-5.18,4.12-10.34,8.25-15.53,12.35
			c-1.81,1.43-0.12,2.17,0.64,2.83c0.82,0.71,1.55,2.9,3.11,1C224.65,145.27,228.71,140.03,232.82,134.84z"/>
	</g>
	<g>
		<path class="st1" d="M208.95,112.01c0.7,2.78,0.12,5.73,1.05,8.48c0.36-1.41-0.31-2.97,1.39-4.16
			c8.57-6.03,14.99-14.27,22.08-21.82c-0.47-1.69-1.57-2.98-2.66-4.29c-0.21,0.47-0.3,1.04-0.64,1.39
			c-5.99,6.23-12,12.46-18.05,18.63C211.28,111.09,210.38,112.08,208.95,112.01z"/>
		<path class="st1" d="M183.74,114.37c1.44,1.33,3.13,2.42,5.06,3.02c0.2-1.6,0.41-3.2,0.61-4.79c-0.97-0.59-2.04-1.06-2.88-1.8
			c-6.7-5.9-12.18-13.01-18.62-19.17c-0.33-0.31-0.35-0.94-0.51-1.42c-1.08,1.32-2.21,2.62-2.6,4.36
			C170.65,101.61,177.03,108.16,183.74,114.37z"/>
		<path class="st1" d="M138.58,151.84c1.94,1.86,3.98,3.67,5.16,6.18c2.12-0.09,4.27,0.18,6.34-0.52c-2.81-0.69-3.1-3.67-4.84-5.37
			c-5.5-5.37-10.88-10.86-16.27-16.34c-0.85-0.86-2.03-1.52-2.17-2.92c-1.5,1.05-2.99,2.11-4.49,3.16
			C128.19,140.83,133.13,146.6,138.58,151.84z"/>
		<path class="st1" d="M225.08,231.66c-4.18-3.89-7.72-8.5-12.51-11.69c-1.75-1.17-2.76-2.35-2.58-4.44
			c-0.35,2.81-0.7,5.61-1.05,8.42c2.05-0.58,3.02,1.11,4.12,2.18c4.77,4.61,9.45,9.3,14.1,14.03c1.36,1.38,3.09,2.48,3.81,4.43
			c1.05-1.47,2.11-2.93,3.16-4.4C230.64,237.83,228.12,234.48,225.08,231.66z"/>
		<path class="st1" d="M188.82,223.15c0-2.33,0.27-4.69-0.5-6.96c-0.04,1.42-0.47,2.52-1.87,3.27c-2.11,1.13-3.85,2.8-5.54,4.49
			c-4.76,4.77-9.52,9.55-14.32,14.29c-0.77,0.76-1.36,1.93-2.76,1.71c1.05,1.36,2.09,2.71,3.14,4.07c1.29-1.21,2.58-2.41,3.86-3.61
			C176.88,234.7,182.2,228.25,188.82,223.15z"/>
		<path class="st1" d="M254.58,178.02c-2.12,0.08-4.26-0.19-6.32,0.52c3.11,0.8,3.54,4.08,5.51,5.97
			c5.38,5.14,10.57,10.49,15.81,15.79c0.77,0.78,1.89,1.37,1.82,2.73c1.35-1.04,2.71-2.07,4.06-3.11c-2.7-2.75-5.46-5.44-8.09-8.25
			C263.11,187.12,258.09,183.27,254.58,178.02z"/>
		<path class="st1" d="M143.74,178.02c-0.98,1.87-2.46,3.35-3.92,4.83c-5.63,5.71-11.24,11.43-16.86,17.14
			c1.3,1.01,2.6,2.03,3.91,3.04c0.01-1.33,1.11-1.94,1.88-2.73c4.9-4.94,9.74-9.95,14.79-14.73c2.28-2.16,3.35-5.24,5.95-7.08
			C147.61,177.89,145.66,178.06,143.74,178.02z"/>
		<path class="st1" d="M276.01,136.04c-1.3-1.08-2.61-2.16-4.28-2.65c-4.24,4.15-8.49,8.28-12.7,12.44
			c-3.55,3.51-7.29,6.86-9.55,11.45c1.72,0.2,3.43,0.41,5.15,0.61C260.67,149.54,268.23,142.68,276.01,136.04z"/>
		<path class="st1" d="M184.43,100.7c1.69,1.78,3.39,3.29,5.67,4.15c0.76-1.83,0.52-3.78,0.68-5.68
			c-6.88-4.68-12.14-11.02-17.7-17.06c-1.03,1.5-2.06,2.99-3.09,4.49C175.37,90.73,179.8,95.83,184.43,100.7z"/>
		<path class="st1" d="M131.27,159.29c2.51-0.11,5.07,0.26,7.53-0.56c-1.05-0.32-2.33,0.18-3.13-1.01
			c-4.3-6.35-10.41-11.01-15.54-16.59c-0.68-0.74-1.69-1.32-1.42-2.59c-1.74,1.21-3.47,2.42-5.21,3.62
			c0.77-0.02,1.41,0.27,1.94,0.83C120.7,148.45,126.47,153.41,131.27,159.29z"/>
		<path class="st1" d="M213.04,94.51c-1.72,1.6-3.04,3.69-5.39,4.54c0.21,1.91,0.42,3.82,0.64,5.73c1.45-0.99,3.2-1.72,4.29-3.02
			c3.99-4.78,8.7-8.85,12.98-13.33c0.76-0.79,1.39-1.88,2.74-1.82c-0.81-1.47-1.64-2.91-3.02-3.94
			C220.84,86.26,217.2,90.66,213.04,94.51z"/>
		<path class="st1" d="M134.52,179.62c1.25-1.51,2.37-2.45,4.29-2.36c-2.45-0.81-4.97-0.52-7.48-0.54
			c-5.52,5.95-11.15,11.79-17.24,17.17c1.07,1.14,2.32,2.03,3.83,2.49C123.83,191.16,129.52,185.71,134.52,179.62z"/>
		<path class="st1" d="M262.07,158.63c1.66,0.58,3.38,0.59,5.11,0.62c0.55-1.77,2.01-2.84,3.2-4.11c4.33-4.58,9.15-8.68,13.17-13.55
			c-1.04-1.37-2.47-2.23-3.93-3.04c-0.06,1.83-1.7,2.52-2.7,3.65C272.02,147.72,265.78,152.03,262.07,158.63z"/>
		<path class="st1" d="M266.99,176.49c-2.48,0.42-5.06-0.11-7.5,0.76c1.55,0.11,2.79,0.36,3.95,1.83
			c5.01,6.36,10.99,11.81,16.92,17.29c1.49-0.52,2.74-1.39,3.82-2.53C278.19,188.32,272.3,182.7,266.99,176.49z"/>
		<path class="st1" d="M208.28,230.63c-0.2,1.69-0.39,3.38-0.59,5.08c6.54,4.96,11.84,11.21,17.57,17c1.12-1.09,2.02-2.34,2.56-3.82
			C221.44,242.67,215.93,235.51,208.28,230.63z"/>
		<path class="st1" d="M190.62,235.86c-0.21-1.8-0.42-3.59-0.62-5.39c-7.46,5.15-13.31,12-19.48,18.49c0.47,1.49,1.39,2.69,2.5,3.76
			c4.42-4.49,8.83-9,13.27-13.47C187.59,237.95,188.73,236.42,190.62,235.86z"/>
		<path class="st1" d="M207.28,243.93c-0.32-0.24-0.28-0.96-0.41-1.45c-0.7,2.23-0.44,4.55-0.6,6.83
			c4.74,3.55,8.34,8.29,12.77,12.16c1.32-1.06,2.13-2.49,2.95-3.92C216.64,253.5,212.69,247.93,207.28,243.93z"/>
		<path class="st1" d="M190.66,84.99c-3.77-3.92-7.92-7.47-11.38-11.68c-1.12,1.09-1.99,2.35-2.55,3.82
			c3.82,4.49,8.01,8.63,12.49,12.44c1.38,1.18,2.29,2.23,2.26,4.02c0.34-2.84,0.68-5.69,1.02-8.53
			C191.86,85.72,191.26,85.61,190.66,84.99z"/>
		<path class="st1" d="M208,90.17c4.23-3.06,7.52-7.14,11.31-10.68c0.8-0.74,1.38-1.92,2.79-1.68c-0.71-1.56-1.58-3-3.07-3.96
			c-3.96,2.85-6.92,6.75-10.51,9.99c-0.75,0.67-1.42,2.11-2.69,0.61c0.35,2.83,0.7,5.65,1.04,8.47
			C207.1,91.95,206.96,90.92,208,90.17z"/>
		<path class="st1" d="M272.69,159.99c2.84,0.35,5.67,0.7,8.5,1.05c-0.64-1.61,0.8-2.2,1.57-3.06c3.11-3.47,6.88-6.32,9.62-10.14
			c-0.72-1.33-1.98-1.96-3.28-2.53c-4.05,4.12-8.22,8.13-12.08,12.42C275.74,159.17,274.59,160.1,272.69,159.99z"/>
		<path class="st1" d="M117.9,161.04c1.72-0.19,3.44-0.39,5.16-0.58c-1.3-2.16-2.94-4.03-4.72-5.81c-3.1-3.09-6.12-6.26-9.17-9.4
			c-1.41,0.68-2.74,1.46-3.77,2.67C109.32,152.52,114.18,156.24,117.9,161.04z"/>
		<path class="st1" d="M176.76,257.8c0.44,1.7,1.54,3,2.66,4.27c3.55-4.9,7.88-9.01,12.63-12.72c-0.07-1.71,0.01-3.44-0.69-5.06
			C185.45,247.67,181.47,253.13,176.76,257.8z"/>
		<path class="st1" d="M280.56,174.91c-1.68-0.01-3.35,0.09-4.95,0.65c3.49,5.84,8.82,9.95,13.65,14.54
			c1.7-0.45,3.01-1.55,4.28-2.68C288.4,184.09,284.56,179.41,280.56,174.91z"/>
		<path class="st1" d="M122.71,175.56c-1.61-0.53-3.27-0.66-4.94-0.64c-2.29,3.36-5.48,5.87-8.29,8.73
			c-1.41,1.43-2.48,3.37-4.7,3.86c1.3,1.1,2.59,2.2,4.3,2.61C113.92,185.53,119.26,181.43,122.71,175.56z"/>
		<path class="st1" d="M142.38,162.88c4.02,0.29,4.04,0.32,4.04,5.1c0,4.75-0.1,4.88-4.02,5.16c2.9,0.88,5.95,0.51,8.88,1.09
			c-1.32-3.52,0.4-7.21-0.6-10.75c-0.18-0.63,0.22-1.21,0.68-1.67C148.36,162.17,145.37,162.52,142.38,162.88z"/>
		<path class="st1" d="M195.42,216.2c-1.19,0.21-2.25,0.03-2.79-1.26c0.36,2.96,0.73,5.93,1.09,8.89c-0.15-2.35,0.93-3.43,3.3-3.31
			c1.76,0.09,3.52,0.08,5.27,0.11c1.32,0.03,2.14,0.64,2.34,1.99c0.72-2.04,0.4-4.17,0.59-6.25
			C201.96,216.17,198.7,215.63,195.42,216.2z"/>
		<path class="st1" d="M255.91,173.14c-1.14-0.39-2.57,0.43-3.51-0.71c-1.43-1.72-0.77-8.2,0.99-10.16
			c-1.87-0.59-3.81-0.44-5.73-0.52c-0.31,3.6-0.87,7.19-0.03,10.8c0.15,0.64-0.17,1.21-0.62,1.68
			C249.93,173.56,253.01,174.05,255.91,173.14z"/>
		<path class="st1" d="M205.15,119.13c-0.14-2.1,0.19-4.24-0.55-6.28c-0.08,1.37-0.9,1.79-2.17,2.11c-2.91,0.71-5.73,0.15-8.58-0.26
			c-0.19,1.5-0.38,3-0.57,4.5C197.25,120.02,201.2,119.9,205.15,119.13z"/>
		<path class="st1" d="M260.21,163.08c-0.21,3.13-0.36,6.26,0.08,9.38c2.1-0.16,4.25,0.19,6.29-0.56c-0.92-0.2-1.9-0.37-1.92-1.6
			c-0.05-2.24-0.58-4.52,0.6-6.65C263.58,163.46,261.89,163.27,260.21,163.08z"/>
		<path class="st1" d="M194.96,234.49c2.6-2.37,5.47-1.39,8.31-0.67c0.2-1.69,0.41-3.38,0.61-5.07c-3.16,0.02-6.32,0.05-9.49,0.07
			C194.55,230.72,194.32,232.65,194.96,234.49z"/>
		<path class="st1" d="M203.81,106.67c-0.2-1.55-0.4-3.1-0.6-4.65c-2.67,0.48-5.35,0.46-8.03,0.08c-0.21,1.6-0.42,3.19-0.63,4.78
			C197.64,107.07,200.73,107.15,203.81,106.67z"/>
		<path class="st1" d="M131.73,171.91c2.05,0.73,4.19,0.4,6.28,0.57c0.23-2.98,0.28-5.95,0-8.93c-2.31,0.16-4.65-0.21-6.91,0.57
			c1.38,0.14,2.85,0.36,2.55,2.21C133.34,168.27,135.13,171.02,131.73,171.91z"/>
		<path class="st1" d="M280.34,165.39c-2.21-0.78-4.54-0.37-6.8-0.64c-0.06,2.12-0.11,4.25-0.17,6.37c1.69-0.22,3.38-0.43,5.07-0.65
			C278.5,168.57,276.67,165.95,280.34,165.39z"/>
		<path class="st1" d="M201.99,242.57c-1.98-1.06-4.2,0.03-6.22-0.7c0.22,1.74,0.44,3.48,0.67,5.22c4.62-0.63,4.69-0.58,5.02,3.03
			C202.32,247.65,201.96,245.09,201.99,242.57z"/>
		<path class="st1" d="M202.52,93.74c-0.35-2.83-0.7-5.65-1.05-8.47c-0.24,1.31,0.23,2.98-2.01,3.11c-1.88,0.11-2.59-0.76-2.61-2.48
			c-0.81,2.24-0.39,4.58-0.59,6.87C198.33,93.24,200.67,91.95,202.52,93.74z"/>
		<path class="st1" d="M124.49,171.05c0.38-2.04,0.44-4.08-0.01-6.12c-1.56-0.01-3.11,0.06-4.61,0.57c0.29,1.65,0.26,3.31,0.01,4.96
			C121.41,170.66,122.95,170.86,124.49,171.05z"/>
	</g>
</g>
</svg>
