<?xml version="1.0" encoding="utf-8"?>
<!-- Generator: Adobe Illustrator 23.0.6, SVG Export Plug-In . SVG Version: 6.00 Build 0)  -->
<svg version="1.1" id="Layer_1" xmlns="http://www.w3.org/2000/svg" xmlns:xlink="http://www.w3.org/1999/xlink" x="0px" y="0px"
	 viewBox="0 0 404.61 401.73" style="enable-background:new 0 0 404.61 401.73;" xml:space="preserve">
<style type="text/css">
	.st0{fill:#0DA5A1;}
</style>
<g>
	<g>
		<path class="st0" d="M354.22,344.29c-2.6,6.86-4.7,13.83-4.36,21.3c0.26,5.62,0.44,11.24,0.74,16.86
			c0.12,2.25-0.97,3.08-3.04,3.22c-2.23,0.15-2.94-0.77-3.03-3c-0.31-7.31-0.6-14.63-1.46-21.89c-0.38-3.2-2.09-6.26-3.23-9.36
			c-1.07-2.9-2.34-5.73-3.18-8.69c-0.25-0.88,0.64-2.08,1.01-3.13c1.04,0.5,2.63,0.74,3.02,1.56c1.44,2.98,2.51,6.14,3.67,9.24
			c0.43,1.15,0.74,2.35,1.32,4.25c0.71-3.89,1.15-7.05,1.88-10.14c0.9-3.77,3.2-5.17,6.66-4.37
			C354.22,341.53,354.22,342.91,354.22,344.29z"/>
	</g>
	<g>
		<path class="st0" d="M199.91,10.15c5.45,3.55,8.87,5.78,12.73,8.3c-3.9,7.88-7.67,15.51-11.73,23.7
			c14.58,0.79,21.01,12.21,25.68,21.66c11.79,23.89,31.41,39.85,50.46,56.82c10.44,9.3,22.5,15,35.36,20.06
			c8.96,3.53,16.9,9.63,26.49,15.28c-3,5.53-5.65,10.43-8.49,15.66c3.53,1.27,7.26,2.09,10.43,3.89c2.9,1.64,5.2,4.33,9.66,8.2
			c-63.38,12.72-100.47,50.56-115.33,111c0.43-21.57,11.7-39.55,20.67-58.26c-1.46-0.64-2.92-1.27-4.38-1.91
			c-7.9,15.71-15.8,31.43-24.01,47.74c4.4-35.92,37.79-86.38,87.23-99.85c-5.97-1.68-9.73-3.96-13.08-3.47
			c-16.92,2.46-33.57,4.9-49.13,13.85c-16.11,9.26-24.32,22.95-26.86,39.75c-2.73,18.09-2.47,36.61-3.93,54.92
			c-0.34,4.21-2.45,8.27-3.64,12.43c-0.51,1.77-0.9,3.6-1.07,5.44c-0.18,2-0.04,4.03-0.04,6.05c-2.65-1.76-6.68-2.95-7.7-5.4
			c-2.62-6.27-5.2-13.03-5.48-19.7c-1.02-23.75,1.7-47.01,8.65-70.05c6.92-22.94,23.56-34.94,44.19-41.27
			c20.84-6.39,42.47-11.69,66.12-5.82c-25.17-18.94-50.07-30.54-80.74-11.94c-3.6-39.63-21.52-71.56-43.29-103.37
			c-8.46,38.84-14.69,76.99-9.84,117.58c-3.13-1.57-5.14-2.26-6.79-3.46c-15.21-10.98-31.05-8.67-47.15-2.5
			c-10.01,3.84-20.06,7.57-30.1,11.35c-0.31-0.71-0.62-1.42-0.92-2.13c14.57-6.5,29.15-13.01,43.72-19.51
			c-27.42,2.01-50.71,20.41-78.49,19.65c-0.7-1.18-1.39-2.36-2.09-3.54c2.43-3.13,4.38-6.84,7.37-9.29
			c14.84-12.17,32.16-22.13,44.43-36.44c16.28-19,28.48-41.46,42.84-62.16C173.96,45.67,186.83,28.31,199.91,10.15z M179.62,66.35
			c-20.67,33.23-37.31,67.04-66.57,92.07c19.37-6.44,37.4-16.16,58.05-12.75C173.91,119.51,176.66,93.93,179.62,66.35z"/>
	</g>
	<g>
		<path class="st0" d="M191.08,316.81c-24.77-46.87-64.43-77.64-110.95-104.28c22.36,4.17,35.27,21.91,53.54,29.06
			c0.71-1.12,1.42-2.25,2.13-3.37c-16.5-11.3-32.99-22.61-49.49-33.91c0.49-0.62,0.97-1.25,1.46-1.87
			c34.48,16.83,63.58,40.88,90.84,68.66c-2.21-9.02-4.42-18.04-6.65-27.06c-1.98-8.03-4.93-15.98-5.63-24.12
			c-0.45-5.21,2.42-10.7,4.11-17.23c-12.56-1.1-25.77-2.56-39.01-3.34c-17.14-1.02-34.34-1.24-51.47-2.41
			c-3.54-0.24-6.87-3.21-10.34-4.83c-1.95-0.91-3.92-1.9-5.99-2.39c-1.8-0.42-3.76-0.19-5.65-0.25c1.86-2.4,3.33-6.36,5.64-6.92
			c7.01-1.71,14.4-3.19,21.55-2.84c24.1,1.21,48.16,3.22,72.23,4.99c6.38,0.47,12.73,1.29,19.11,1.81
			c14.85,1.2,20.98,11.89,11.13,22.33c-8.89,9.42-6.38,18.8-4.4,28.28c4.3,20.55,10.28,40.76,14.52,61.32
			c1.14,5.53-1.51,11.83-2.43,17.78C193.91,316.41,192.49,316.61,191.08,316.81z"/>
	</g>
	<g>
		<path class="st0" d="M147.91,375.17c0-7.21,0-14.43,0-21.64c0-4.14,0.08-8.28-0.03-12.42c-0.06-2.24,0.87-3.24,3.05-3.06
			c2.17,0.17,2.22,1.38,2.11,3.35c-0.47,8.95-0.69,17.91-0.9,26.86c-0.11,4.71,0.08,9.43-0.1,14.14c-0.04,1.06-1.04,2.09-1.6,3.13
			c-0.99-0.59-2.37-0.94-2.91-1.81c-1.63-2.63-3.11-5.37-4.33-8.22c-3.33-7.81-6.5-15.69-9.73-23.54c-0.41-1-0.85-2-1.19-2.79
			c0,8.69-0.03,17.46,0.02,26.23c0.01,1.83,0.35,3.66,0.42,5.49c0.14,3.94-0.13,4.15-4.52,3.78c-0.24-5.21-0.65-10.44-0.7-15.68
			c-0.08-8.96,0.02-17.92,0.19-26.88c0.02-1.06,0.96-2.11,1.48-3.17c1.01,0.64,2.46,1.03,2.97,1.95c2.4,4.3,4.81,8.63,6.7,13.16
			c2.9,6.96,5.38,14.1,8.04,21.16C147.23,375.22,147.57,375.19,147.91,375.17z"/>
	</g>
	<g>
		<path class="st0" d="M249.41,375.31c-3.1-0.44-5.92-0.99-8.75-1.13c-0.8-0.04-2.03,0.92-2.43,1.73c-0.85,1.73-1.25,3.68-1.92,5.51
			c-1.17,3.22-1.69,3.41-5.25,1.95c3.54-12.14,7.01-24.33,10.68-36.46c0.65-2.15,1.86-4.23,3.26-5.99c0.66-0.83,2.42-1.16,3.61-1.05
			c0.56,0.05,1.26,1.65,1.4,2.62c1.75,12.61,3.45,25.23,5.04,37.87c0.17,1.32-0.15,3.06-0.95,4.02c-0.53,0.64-2.42,0.57-3.49,0.21
			c-0.61-0.21-1.08-1.61-1.15-2.51C249.3,380.02,249.41,377.95,249.41,375.31z M246.28,349.48c-0.31-0.07-0.62-0.14-0.92-0.21
			c-1.95,7.15-3.9,14.29-6.04,22.11c3.67,0.22,6.73,0.4,10.02,0.6C248.26,364.05,247.27,356.76,246.28,349.48z"/>
	</g>
	<g>
		<path class="st0" d="M323.11,362.18c0,6.59,0.08,13.17-0.07,19.76c-0.03,1.11-0.8,2.88-1.64,3.17c-1.97,0.7-3.16-0.3-3.14-2.65
			c0.12-13.54,0.19-27.09,0.2-40.63c0-2.02,0.95-2.53,2.73-2.6c7.89-0.27,13.01,6.95,10.07,14.27c-0.13,0.32-0.23,0.67-0.45,0.92
			c-4.07,4.75-2.35,9.6-0.19,14.39c1.79,3.97,3.84,7.82,5.56,11.82c0.54,1.25,0.54,2.81,0.45,4.2c-0.02,0.27-1.94,0.9-2.34,0.58
			c-1.11-0.91-2.24-2.1-2.74-3.41c-2.53-6.66-4.87-13.4-7.27-20.11C323.89,361.99,323.5,362.09,323.11,362.18z M323.06,356.58
			c3.85-2.1,3.98-5.66,3.97-8.74c-0.01-1.93-1.76-3.86-2.73-5.79c-0.41,0.17-0.83,0.33-1.24,0.5
			C323.06,347.05,323.06,351.55,323.06,356.58z"/>
	</g>
	<g>
		<path class="st0" d="M70.82,372.15c3.12-1.82,6.6-1.89,10.07-1.28c0.81,0.14,1.77,1.52,2.01,2.49c0.72,2.88,1.14,5.84,1.62,8.77
			c0.61,3.77-0.54,4.73-4.06,3.56c-0.7-0.23-1.56-0.48-2.2-0.28c-10.78,3.47-19.71-0.96-21.02-14c-0.8-7.95-1.49-16.06,1.1-23.9
			c2.25-6.8,8.63-10.57,15.36-9.15c0.91,0.19,1.67,1.12,2.5,1.7c-0.94,0.45-1.87,1.26-2.83,1.31c-6.86,0.3-9.39,1.89-10.3,8.7
			c-0.96,7.23-1.57,14.63-1.15,21.89c0.53,9.29,6.01,12.28,13.84,10.95c3.58-0.61,5.02-5.38,2.5-8.04
			c-0.54-0.56-1.83-0.43-2.78-0.58c-1.57-0.24-3.14-0.44-4.71-0.66C70.77,373.14,70.79,372.64,70.82,372.15z"/>
	</g>
	<g>
		<path class="st0" d="M218.88,340.84c-1.34,0.15-2.7,0.53-4.02,0.41c-2.99-0.28-5.32,0.79-6.53,3.43
			c-1.18,2.57-2.44,5.32-2.63,8.07c-0.48,6.96-0.89,13.99-0.35,20.92c0.56,7.09,7.52,11.27,13.58,9.13
			c2.78-0.98,3.19-2.88,2.74-5.42c-0.42-2.36-1.24-3.74-4.1-3.15c-1,0.2-2.27-0.9-3.42-1.41c0.97-0.62,1.86-1.53,2.92-1.8
			c1.53-0.39,3.3-0.76,4.73-0.34c1.37,0.41,3.09,1.61,3.52,2.86c0.99,2.9,1.4,6.02,1.84,9.07c0.47,3.23-0.89,4.19-4.04,3.18
			c-0.88-0.28-1.96-0.44-2.83-0.21c-10.36,2.74-17.25-1.15-19.37-11.64c-1.72-8.49-1.97-17.14,0.34-25.6
			c1.89-6.93,7.24-10.63,14.09-10.16c1.24,0.09,2.44,0.71,3.66,1.09C218.96,339.8,218.92,340.32,218.88,340.84z"/>
	</g>
	<g>
		<path class="st0" d="M303.61,343.45c0,5.39,0,10.52,0,16c1.6,0,2.96-0.2,4.22,0.07c0.83,0.18,1.51,1.04,2.25,1.6
			c-0.7,0.6-1.5,1.79-2.09,1.7c-4.3-0.69-4.27,1.87-4.16,4.92c0.16,4.46,0.04,8.92,0.04,13.54c3.44,0.33,6.68,0.65,9.93,0.97
			c0.04,0.59,0.08,1.18,0.12,1.77c-2.18,0.45-4.34,1.18-6.54,1.29c-8.35,0.39-8.35,0.31-8.35-7.86c0-8.03,0.08-16.07-0.04-24.1
			c-0.05-3.07-0.65-6.12-0.84-9.19c-0.06-1.02,0.06-2.31,0.64-3.06c1.42-1.85,9.33-2.33,11.08-0.83c0.38,0.32,0.83,1.08,0.7,1.36
			c-0.25,0.53-0.87,1.13-1.42,1.23C307.36,343.17,305.53,343.26,303.61,343.45z"/>
	</g>
	<g>
		<path class="st0" d="M110.91,343.71c-1.19-0.32-2.52-0.68-3.86-1.04c-0.06-0.36-0.12-0.71-0.19-1.07c1.09-0.52,2.13-1.32,3.27-1.5
			c2.48-0.4,5-0.64,7.51-0.63c0.92,0,1.83,0.91,2.75,1.41c-0.91,0.62-1.78,1.32-2.75,1.83c-0.46,0.24-1.12,0.12-2.51,0.23
			c0.87,12.65,1.73,25.25,2.58,37.51c1.95,0.75,3.7,1.42,5.92,2.26c-3.15,2.3-13.33,2.91-15.6,1.37c-0.39-0.27-0.82-0.93-0.75-1.33
			c0.08-0.42,0.69-0.95,1.14-1.03c1.23-0.21,2.49-0.21,4.31-0.34C112.12,368.8,111.52,356.29,110.91,343.71z"/>
	</g>
	<g>
		<path class="st0" d="M285.37,381.54c2.15,0,4-0.2,5.78,0.08c0.92,0.14,1.72,1.13,2.57,1.73c-0.86,0.55-1.66,1.43-2.59,1.58
			c-2.46,0.4-4.97,0.56-7.47,0.66c-2.05,0.09-3.33-0.41-3.36-3.09c-0.09-9.06-0.5-18.12-0.81-27.18c-0.15-4.47-0.35-8.95-0.52-13.42
			c-0.06-1.55-0.12-3.11,2.13-3.1c2.05,0.02,2.71,1.09,2.77,3.06c0.39,12.51,0.87,25.01,1.33,37.52
			C285.22,379.96,285.29,380.52,285.37,381.54z"/>
	</g>
	<g>
		<path class="st0" d="M95.46,381.56c2.44,0,4.4-0.17,6.3,0.08c0.8,0.11,1.49,1.12,2.23,1.72c-0.75,0.55-1.44,1.46-2.26,1.58
			c-2.58,0.39-5.2,0.55-7.81,0.66c-2.05,0.09-3.33-0.4-3.36-3.09c-0.09-9.06-0.5-18.12-0.8-27.18c-0.15-4.47-0.34-8.95-0.51-13.42
			c-0.06-1.55-0.14-3.12,2.12-3.1c2.05,0.02,2.71,1.1,2.77,3.06c0.39,11.93,0.88,23.86,1.32,35.79
			C95.49,378.81,95.46,379.94,95.46,381.56z"/>
	</g>
	<g>
		<path class="st0" d="M266.68,381.56c2.25,0,4.21-0.17,6.11,0.08c0.78,0.11,1.43,1.15,2.14,1.77c-0.75,0.53-1.46,1.41-2.27,1.53
			c-2.58,0.38-5.2,0.58-7.8,0.65c-1.78,0.05-3.3-0.17-3.33-2.77c-0.09-8.59-0.41-17.18-0.68-25.77c-0.16-4.93-0.42-9.86-0.58-14.79
			c-0.05-1.55-0.43-3.44,2.11-3.44c2.29,0,2.77,1.38,2.83,3.39c0.39,12.27,0.86,24.54,1.31,36.81
			C266.55,379.7,266.61,380.38,266.68,381.56z"/>
	</g>
	<g>
		<path class="st0" d="M165.03,343.75c-2.88-0.31-5.43-0.59-7.98-0.87c-0.01-0.5-0.03-1-0.04-1.49c1.46-0.41,2.9-1.03,4.39-1.19
			c3.54-0.37,7.1-0.68,10.65-0.66c1.37,0.01,2.73,0.97,4.1,1.5c-1.3,0.59-2.57,1.24-3.91,1.73c-0.6,0.22-1.33,0.1-2.57,0.16
			c0.44,10.65,0.86,21.16,1.3,31.68c0.11,2.64,0.51,5.29,0.31,7.9c-0.07,1-1.44,1.9-2.22,2.85c-1.03-0.88-2.17-1.67-3.03-2.69
			c-0.34-0.4-0.02-1.33-0.03-2.02c-0.2-11.46-0.39-22.93-0.61-34.39C165.38,345.48,165.17,344.69,165.03,343.75z"/>
	</g>
</g>
</svg>
